<?xml version="1.0" encoding="UTF-8" standalone="no"?>

<svg
	xmlns="http://www.w3.org/2000/svg"
	width="360"
	height="645">
	<path
		style="fill: #191919"
		d="m 95.708539,484.9101 c 0,16.22866 -7.694806,23.6678 -1.579794,32.11183 4.717812,6.51466 -5.510702,10.24456 0.853524,20.44371 6.110921,9.79376 -5.586215,15.79331 -0.157221,24.73617 4.381897,7.21819 -3.192851,12.52709 0.415625,19.68777 4.349235,8.63123 5.975377,15.42067 10.500797,19.96104 8.12132,8.14809 23.75255,13.515 32.29279,19.74009 5.1641,3.76426 5.75562,8.30553 9.22436,10.56799 a 33.065965,15.408494 0 0 0 32.85415,13.82381 33.065965,15.408494 0 0 0 32.93666,-14.17557 c 3.03094,-2.3611 3.80235,-6.64338 8.70395,-10.21623 8.54025,-6.22509 24.17128,-11.592 32.29249,-19.74009 4.52563,-4.54037 6.15168,-11.32981 10.50111,-19.96104 3.60847,-7.16068 -3.97017,-12.46958 0.41172,-19.68777 5.4288,-8.94286 -6.26464,-14.94241 -0.15332,-24.73617 6.36413,-10.19915 -3.86438,-13.92905 0.85352,-20.44371 6.11502,-8.44403 -1.58359,-15.88317 -1.58359,-32.11183 l -168.366571,0 z" />
	<path
		style="fill: #ffeb23; stroke: #191919; stroke-width: 14.37285042"
		d="m 179.87474,512.20147 c -50.91661,0 -71.86785,-11.40968 -72.71059,-11.80438 C 67.841487,481.97809 106.31273,400.07192 49.44571,343.84769 -7.421299,287.62335 -40.911225,8.1689347 179.89272,8.1689347 c 220.80416,0 187.81255,278.9616653 130.44722,335.6787553 -57.36534,56.71708 -13.79943,135.03752 -58.55578,157.63104 0,0 -20.99281,10.72274 -71.90962,10.72274 z" />
	<path
		style="fill: #191919"
		d="m 105.03873,207.20836 c 0,0 47.9092,162.95383 48.19883,164.09344 -5.42024,3.28508 -9.86937,7.67276 -12.5033,13.24544 l 10.24612,26.30752 -0.22046,92.56973 c -0.15333,3.56147 14.05057,6.34384 31.57135,6.34384 17.52078,0 31.72521,-2.78237 31.69814,-6.34384 l 0.1034,-92.56973 10.31242,-26.30752 c -3.34624,-7.07989 -9.61628,-12.25256 -17.09569,-15.67142 1.64655,-5.74785 47.48675,-161.66746 47.48675,-161.66746 l -74.89878,0 -74.89878,0 z m 14.89509,10.63613 60.00369,0 60.0037,0 -38.15952,148.88227 c -0.74669,-0.24244 -1.50366,-0.46053 -2.26304,-0.6728 l 0.0839,-56.48415 c 0,-1.37318 -2.30531,-2.41103 -5.78637,-3.12025 2.79013,-9.56848 20.67755,-70.55643 20.67755,-70.55643 l -69.11241,0 c 0,0 17.87756,60.95469 20.67362,70.54279 -3.53695,0.71014 -5.88584,1.75285 -5.88584,3.13389 l 0.33945,58.18467 c -0.65674,0.25538 -1.3039,0.52686 -1.94505,0.80736 L 119.93382,217.84449 Z m 39.97189,27.54392 40.06359,0 -12.6457,60.20309 c -4.70368,-0.37261 -10.05869,-0.37514 -14.77217,-0.006 l -12.64572,-60.19709 z" />
</svg>